<svg t="1732963437631" class="icon" viewBox="0 0 1024 1024" version="1.1"
    xmlns="http://www.w3.org/2000/svg" p-id="4299" width="256" height="256">
    <path d="M512 512m-512 0a512 512 0 1 0 1024 0 512 512 0 1 0-1024 0Z" fill="#333333"
        p-id="4300"></path>
    <path
        d="M523.52 213.1456h96.6656c3.5328 12.0832 6.7072 23.2448 10.24 34.3552a142.6432 142.6432 0 0 0 118.3744 105.984c13.1584 2.5088 19.712 7.0144 19.5072 20.8384-0.3584 26.3168 0 52.6848 0 81.2544a237.2096 237.2096 0 0 1-143.104-42.4448v212.8896a174.08 174.08 0 0 1-30.72 99.9936 182.4256 182.4256 0 0 1-216.32 70.8608 195.8912 195.8912 0 0 1-119.9616-208.4352 189.44 189.44 0 0 1 196.608-161.5872 103.68 103.68 0 0 1 13.2608 2.6624v109.7216c-5.7856-0.5632-10.8544-1.0752-15.9232-1.4848a76.2368 76.2368 0 0 0-86.6816 52.48 89.4976 89.4976 0 0 0 40.0384 105.2672 81.6128 81.6128 0 0 0 117.76-68.864c1.4848-45.0048 0.4096-90.0608 0.4096-135.1168v-252.5184c-0.1536-7.936-0.1536-15.872-0.1536-25.856z"
        fill="#FFFFFF" p-id="4301"></path>
</svg>